<svg xmlns:svg="http://www.w3.org/2000/svg" xmlns="http://www.w3.org/2000/svg" width="18" height="18" version="1.1" viewBox="0 0 18 18"><style>.s0{fill:#000;stroke-width:0.84;stroke:#000;}</style><g transform="translate(0,2)"><g transform="translate(-64.999998,-1036.3622)"><path d="m81.74 1051.11c0 0-2.45-6.02-4.08-6.88-1.63-0.86-1.63-0.86 0-1.72 1.63-0.86 4.08-6.88 4.08-6.88l-15.49 0c0 0 2.45 6.02 4.08 6.88 1.63 0.86 1.63 0.86 0 1.72-1.63 0.86-4.08 6.88-4.08 6.88z" style="fill:none;stroke-linejoin:round;stroke-width:2.51;stroke:#000"/><path d="m70.33 1051.11 3.26-4.3 0.82 0 3.26 4.3zM70.33 1038.2l3.26 4.3 0.82 0 3.26-4.3M70.33 1038.2l3.26 4.3 0.82 0 3.26-4.3M70.33 1038.2l3.26 4.3 0.82 0 3.26-4.3z" class="s0"/><rect y="1042.87" x="73.39" height="3.65" width="1.23" fill="#000"/></g></g></svg>