<?xml version="1.0" encoding="UTF-8" standalone="no"?>
<svg
   xmlns:dc="http://purl.org/dc/elements/1.1/"
   xmlns:cc="http://creativecommons.org/ns#"
   xmlns:rdf="http://www.w3.org/1999/02/22-rdf-syntax-ns#"
   xmlns:svg="http://www.w3.org/2000/svg"
   xmlns="http://www.w3.org/2000/svg"
   xmlns:sodipodi="http://sodipodi.sourceforge.net/DTD/sodipodi-0.dtd"
   xmlns:inkscape="http://www.inkscape.org/namespaces/inkscape"
   enable-background="new 0 0 48 48"
   height="48px"
   id="Layer_1"
   version="1.1"
   viewBox="0 0 48 48"
   width="48px"
   xml:space="preserve"
   inkscape:version="0.91 r13725"
   sodipodi:docname="timeout.svg"><metadata
     id="metadata9"><rdf:RDF><cc:Work
         rdf:about=""><dc:format>image/svg+xml</dc:format><dc:type
           rdf:resource="http://purl.org/dc/dcmitype/StillImage" /></cc:Work></rdf:RDF></metadata><defs
     id="defs7" /><sodipodi:namedview
     pagecolor="#ffffff"
     bordercolor="#666666"
     borderopacity="1"
     objecttolerance="10"
     gridtolerance="10"
     guidetolerance="10"
     inkscape:pageopacity="0"
     inkscape:pageshadow="2"
     inkscape:window-width="1108"
     inkscape:window-height="774"
     id="namedview5"
     showgrid="false"
     inkscape:zoom="9.8333333"
     inkscape:cx="18.611618"
     inkscape:cy="20.467829"
     inkscape:window-x="4767"
     inkscape:window-y="701"
     inkscape:window-maximized="0"
     inkscape:current-layer="Layer_1" /><path
     d="m 40.520508,13.671331 c 3.311271,3.640962 5.343899,8.436933 5.343899,13.71387 0,11.357014 -9.33387,20.563951 -20.847458,20.563951 -11.513587,0 -20.8474575,-9.206937 -20.8474575,-20.563951 0,-10.187153 7.5166665,-18.6206567 17.3728815,-20.2554908 l 0,-4.8782261 -2.316385,0 c -0.64048,0 -1.158191,-0.5118139 -1.158191,-1.1424418 0,-0.63062779 0.517711,-1.14244168 1.158191,-1.14244168 l 11.581922,0 c 0.640479,0 1.158192,0.51181389 1.158192,1.14244168 0,0.6306279 -0.517713,1.1424418 -1.158192,1.1424418 l -2.316384,0 0,4.8725138 c 3.969123,0.6637587 7.556045,2.4265463 10.429519,4.9696211 l 2.69743,-2.6607464 c 0.441271,-0.4352702 1.157033,-0.4352702 1.599463,0 0.441271,0.4352707 0.441271,1.1424414 0,1.5777114 l -2.69743,2.660747 z M 26.175141,2.2514841 l -2.316383,0 0,4.6280313 c 0.385677,-0.021706 0.766722,-0.058265 1.158191,-0.058265 0.391469,0 0.772515,0.033132 1.158192,0.053695 l 0,-4.6234617 z m -1.158192,6.8546503 c -10.233785,0 -18.5310732,8.1833106 -18.5310732,18.2790666 0,10.095758 8.2972882,18.279068 18.5310732,18.279068 10.234944,0 18.531073,-8.18331 18.531073,-18.279068 0,-10.094614 -8.296129,-18.2790666 -18.531073,-18.2790666 z m 0,22.8488336 c -2.558446,0 -4.632768,-2.046114 -4.632768,-4.569767 0,-0.855687 0.253644,-1.6474 0.669435,-2.331723 l -6.130311,-6.045802 c -0.441271,-0.43527 -0.441271,-1.142441 0,-1.577712 0.44243,-0.435269 1.158193,-0.435269 1.599464,0 l 6.13031,6.045803 c 0.694916,-0.410138 1.496385,-0.660333 2.36387,-0.660333 2.558447,0 4.632768,2.046114 4.632768,4.569767 0,2.523653 -2.074321,4.569767 -4.632768,4.569767 z m 0,-6.85465 c -1.278644,0 -2.316384,1.023628 -2.316384,2.284883 0,1.261256 1.03774,2.284884 2.316384,2.284884 1.278645,0 2.316385,-1.023628 2.316385,-2.284884 0,-1.261255 -1.03774,-2.284883 -2.316385,-2.284883 z"
     id="path3"
     inkscape:connector-curvature="0"
     style="clip-rule:evenodd;fill-rule:evenodd" /></svg>